<svg xmlns="http://www.w3.org/2000/svg" version="1.1" xmlns:xlink="http://www.w3.org/1999/xlink" width="230.0" height="192.0" viewBox="0 0 230 192"><defs><g id="black-pawn"><text font-family="serif" font-size="17" text-anchor="middle" x="10.5" y="16.5">&#27497;</text></g><g id="black-lance"><text font-family="serif" font-size="17" text-anchor="middle" x="10.5" y="16.5">&#39321;</text></g><g id="black-knight"><text font-family="serif" font-size="17" text-anchor="middle" x="10.5" y="16.5">&#26690;</text></g><g id="black-silver"><text font-family="serif" font-size="17" text-anchor="middle" x="10.5" y="16.5">&#37504;</text></g><g id="black-gold"><text font-family="serif" font-size="17" text-anchor="middle" x="10.5" y="16.5">&#37329;</text></g><g id="black-bishop"><text font-family="serif" font-size="17" text-anchor="middle" x="10.5" y="16.5">&#35282;</text></g><g id="black-rook"><text font-family="serif" font-size="17" text-anchor="middle" x="10.5" y="16.5">&#39131;</text></g><g id="black-king"><text font-family="serif" font-size="17" text-anchor="middle" x="10.5" y="16.5">&#29579;</text></g><g id="black-pro-pawn"><text font-family="serif" font-size="17" text-anchor="middle" x="10.5" y="16.5">&#12392;</text></g><g id="black-pro-lance" transform="scale(1.0, 0.5)"><text font-family="serif" font-size="17" text-anchor="middle" x="10.5" y="18">&#25104;</text><text font-family="serif" font-size="17" text-anchor="middle" x="10.5" y="34">&#39321;</text></g><g id="black-pro-knight" transform="scale(1.0, 0.5)"><text font-family="serif" font-size="17" text-anchor="middle" x="10.5" y="18">&#25104;</text><text font-family="serif" font-size="17" text-anchor="middle" x="10.5" y="34">&#26690;</text></g><g id="black-pro-silver" transform="scale(1.0, 0.5)"><text font-family="serif" font-size="17" text-anchor="middle" x="10.5" y="18">&#25104;</text><text font-family="serif" font-size="17" text-anchor="middle" x="10.5" y="34">&#37504;</text></g><g id="black-horse"><text font-family="serif" font-size="17" text-anchor="middle" x="10.5" y="16.5">&#39340;</text></g><g id="black-dragon"><text font-family="serif" font-size="17" text-anchor="middle" x="10.5" y="16.5">&#40845;</text></g><g id="white-pawn" transform="rotate(180)"><text font-family="serif" font-size="17" text-anchor="middle" x="-10.5" y="-3.5">&#27497;</text></g><g id="white-lance" transform="rotate(180)"><text font-family="serif" font-size="17" text-anchor="middle" x="-10.5" y="-3.5">&#39321;</text></g><g id="white-knight" transform="rotate(180)"><text font-family="serif" font-size="17" text-anchor="middle" x="-10.5" y="-3.5">&#26690;</text></g><g id="white-silver" transform="rotate(180)"><text font-family="serif" font-size="17" text-anchor="middle" x="-10.5" y="-3.5">&#37504;</text></g><g id="white-gold" transform="rotate(180)"><text font-family="serif" font-size="17" text-anchor="middle" x="-10.5" y="-3.5">&#37329;</text></g><g id="white-bishop" transform="rotate(180)"><text font-family="serif" font-size="17" text-anchor="middle" x="-10.5" y="-3.5">&#35282;</text></g><g id="white-rook" transform="rotate(180)"><text font-family="serif" font-size="17" text-anchor="middle" x="-10.5" y="-3.5">&#39131;</text></g><g id="white-king" transform="rotate(180)"><text font-family="serif" font-size="17" text-anchor="middle" x="-10.5" y="-3.5">&#29579;</text></g><g id="white-pro-pawn" transform="rotate(180)"><text font-family="serif" font-size="17" text-anchor="middle" x="-10.5" y="-3.5">&#12392;</text></g><g id="white-pro-lance" transform="scale(1.0, 0.5) rotate(180)"><text font-family="serif" font-size="17" text-anchor="middle" x="-10.5" y="-22">&#25104;</text><text font-family="serif" font-size="17" text-anchor="middle" x="-10.5" y="-6">&#39321;</text></g><g id="white-pro-knight" transform="scale(1.0, 0.5) rotate(180)"><text font-family="serif" font-size="17" text-anchor="middle" x="-10.5" y="-22">&#25104;</text><text font-family="serif" font-size="17" text-anchor="middle" x="-10.5" y="-6">&#26690;</text></g><g id="white-pro-silver" transform="scale(1.0, 0.5) rotate(180)"><text font-family="serif" font-size="17" text-anchor="middle" x="-10.5" y="-22">&#25104;</text><text font-family="serif" font-size="17" text-anchor="middle" x="-10.5" y="-6">&#37504;</text></g><g id="white-horse" transform="rotate(180)"><text font-family="serif" font-size="17" text-anchor="middle" x="-10.5" y="-3.5">&#39340;</text></g><g id="white-dragon" transform="rotate(180)"><text font-family="serif" font-size="17" text-anchor="middle" x="-10.5" y="-3.5">&#40845;</text></g></defs><g stroke="black"><rect x="20" y="10" width="181" height="181" fill="none" stroke-width="1.5" /><line x1="20.5" y1="30.5" x2="200.5" y2="30.5" stroke-width="1.0" /><line x1="20.5" y1="50.5" x2="200.5" y2="50.5" stroke-width="1.0" /><line x1="20.5" y1="70.5" x2="200.5" y2="70.5" stroke-width="1.0" /><line x1="20.5" y1="90.5" x2="200.5" y2="90.5" stroke-width="1.0" /><line x1="20.5" y1="110.5" x2="200.5" y2="110.5" stroke-width="1.0" /><line x1="20.5" y1="130.5" x2="200.5" y2="130.5" stroke-width="1.0" /><line x1="20.5" y1="150.5" x2="200.5" y2="150.5" stroke-width="1.0" /><line x1="20.5" y1="170.5" x2="200.5" y2="170.5" stroke-width="1.0" /><line x1="40.5" y1="10.5" x2="40.5" y2="190.5" stroke-width="1.0" /><line x1="60.5" y1="10.5" x2="60.5" y2="190.5" stroke-width="1.0" /><line x1="80.5" y1="10.5" x2="80.5" y2="190.5" stroke-width="1.0" /><line x1="100.5" y1="10.5" x2="100.5" y2="190.5" stroke-width="1.0" /><line x1="120.5" y1="10.5" x2="120.5" y2="190.5" stroke-width="1.0" /><line x1="140.5" y1="10.5" x2="140.5" y2="190.5" stroke-width="1.0" /><line x1="160.5" y1="10.5" x2="160.5" y2="190.5" stroke-width="1.0" /><line x1="180.5" y1="10.5" x2="180.5" y2="190.5" stroke-width="1.0" /></g><g><text font-family="serif" text-anchor="middle" font-size="9" x="30.5" y="8">9</text><text font-family="serif" text-anchor="middle" font-size="9" x="50.5" y="8">8</text><text font-family="serif" text-anchor="middle" font-size="9" x="70.5" y="8">7</text><text font-family="serif" text-anchor="middle" font-size="9" x="90.5" y="8">6</text><text font-family="serif" text-anchor="middle" font-size="9" x="110.5" y="8">5</text><text font-family="serif" text-anchor="middle" font-size="9" x="130.5" y="8">4</text><text font-family="serif" text-anchor="middle" font-size="9" x="150.5" y="8">3</text><text font-family="serif" text-anchor="middle" font-size="9" x="170.5" y="8">2</text><text font-family="serif" text-anchor="middle" font-size="9" x="190.5" y="8">1</text><text font-family="serif" font-size="9" x="203.5" y="23">&#19968;</text><text font-family="serif" font-size="9" x="203.5" y="43">&#20108;</text><text font-family="serif" font-size="9" x="203.5" y="63">&#19977;</text><text font-family="serif" font-size="9" x="203.5" y="83">&#22235;</text><text font-family="serif" font-size="9" x="203.5" y="103">&#20116;</text><text font-family="serif" font-size="9" x="203.5" y="123">&#20845;</text><text font-family="serif" font-size="9" x="203.5" y="143">&#19971;</text><text font-family="serif" font-size="9" x="203.5" y="163">&#20843;</text><text font-family="serif" font-size="9" x="203.5" y="183">&#20061;</text></g><use xlink:href="#white-lance" x="180.5" y="10.5" /><use xlink:href="#white-pawn" x="180.5" y="50.5" /><use xlink:href="#black-pawn" x="180.5" y="130.5" /><use xlink:href="#black-lance" x="180.5" y="170.5" /><use xlink:href="#white-knight" x="160.5" y="10.5" /><use xlink:href="#white-bishop" x="160.5" y="30.5" /><use xlink:href="#white-pawn" x="160.5" y="50.5" /><use xlink:href="#black-pawn" x="160.5" y="130.5" /><use xlink:href="#black-knight" x="160.5" y="170.5" /><use xlink:href="#white-silver" x="140.5" y="10.5" /><use xlink:href="#white-rook" x="140.5" y="30.5" /><use xlink:href="#white-pawn" x="140.5" y="70.5" /><use xlink:href="#black-pawn" x="140.5" y="130.5" /><use xlink:href="#black-silver" x="140.5" y="170.5" /><use xlink:href="#white-pawn" x="120.5" y="50.5" /><use xlink:href="#black-pawn" x="120.5" y="130.5" /><use xlink:href="#black-gold" x="120.5" y="170.5" /><use xlink:href="#white-gold" x="100.5" y="10.5" /><use xlink:href="#white-pawn" x="100.5" y="50.5" /><use xlink:href="#black-pawn" x="100.5" y="130.5" /><use xlink:href="#black-king" x="100.5" y="170.5" /><use xlink:href="#white-pawn" x="80.5" y="50.5" /><use xlink:href="#black-pawn" x="80.5" y="110.5" /><use xlink:href="#black-silver" x="80.5" y="130.5" /><use xlink:href="#black-gold" x="80.5" y="170.5" /><use xlink:href="#white-silver" x="60.5" y="10.5" /><use xlink:href="#white-gold" x="60.5" y="30.5" /><use xlink:href="#white-pawn" x="60.5" y="50.5" /><use xlink:href="#black-pawn" x="60.5" y="110.5" /><use xlink:href="#black-bishop" x="60.5" y="130.5" /><use xlink:href="#white-knight" x="40.5" y="10.5" /><use xlink:href="#white-king" x="40.5" y="30.5" /><use xlink:href="#white-pawn" x="40.5" y="50.5" /><use xlink:href="#black-pawn" x="40.5" y="70.5" /><use xlink:href="#black-rook" x="40.5" y="150.5" /><use xlink:href="#black-knight" x="40.5" y="170.5" /><use xlink:href="#white-lance" x="20.5" y="30.5" /><use xlink:href="#white-pawn" x="20.5" y="50.5" /><use xlink:href="#black-pawn" x="20.5" y="130.5" /><use xlink:href="#black-lance" x="20.5" y="170.5" /><text font-family="serif" font-size="14" x="214" y="176">&#25163;</text><text font-family="serif" font-size="14" x="214" y="162">&#20808;</text><text font-family="serif" font-size="14" x="214" y="148">&#9751;</text><text font-family="serif" font-size="14" x="-16" y="-24" transform="rotate(180)">&#25163;</text><text font-family="serif" font-size="14" x="-16" y="-38" transform="rotate(180)">&#24460;</text><text font-family="serif" font-size="14" x="-16" y="-52" transform="rotate(180)">&#9750;</text></svg>